<mxfile host="Electron" modified="2024-07-10T00:10:11.159Z" agent="Mozilla/5.0 (X11; Linux x86_64) AppleWebKit/537.36 (KHTML, like Gecko) draw.io/24.6.4 Chrome/124.0.6367.207 Electron/30.0.6 Safari/537.36" etag="i-BrfYN7CT8Ci20kUD7M" version="24.6.4" type="device">
  <diagram name="Page-1" id="boPcjglz-a8_orKfaUgm">
    <mxGraphModel dx="844" dy="493" grid="1" gridSize="10" guides="1" tooltips="1" connect="1" arrows="1" fold="1" page="1" pageScale="1" pageWidth="850" pageHeight="1100" math="0" shadow="0">
      <root>
        <mxCell id="0" />
        <mxCell id="1" parent="0" />
        <mxCell id="VyBv25yWfUpxDiORW1tx-29" value="" style="shape=table;startSize=0;container=1;collapsible=0;childLayout=tableLayout;" vertex="1" parent="1">
          <mxGeometry x="390" y="209" width="170" height="341" as="geometry" />
        </mxCell>
        <mxCell id="VyBv25yWfUpxDiORW1tx-30" value="" style="shape=tableRow;horizontal=0;startSize=0;swimlaneHead=0;swimlaneBody=0;strokeColor=inherit;top=0;left=0;bottom=0;right=0;collapsible=0;dropTarget=0;fillColor=none;points=[[0,0.5],[1,0.5]];portConstraint=eastwest;" vertex="1" parent="VyBv25yWfUpxDiORW1tx-29">
          <mxGeometry width="170" height="88" as="geometry" />
        </mxCell>
        <mxCell id="VyBv25yWfUpxDiORW1tx-31" value="&lt;font style=&quot;font-size: 24px;&quot;&gt;pipe_buffer&lt;/font&gt;" style="shape=partialRectangle;html=1;whiteSpace=wrap;connectable=0;strokeColor=inherit;overflow=hidden;fillColor=none;top=0;left=0;bottom=0;right=0;pointerEvents=1;" vertex="1" parent="VyBv25yWfUpxDiORW1tx-30">
          <mxGeometry width="170" height="88" as="geometry">
            <mxRectangle width="170" height="88" as="alternateBounds" />
          </mxGeometry>
        </mxCell>
        <mxCell id="VyBv25yWfUpxDiORW1tx-32" value="" style="shape=tableRow;horizontal=0;startSize=0;swimlaneHead=0;swimlaneBody=0;strokeColor=inherit;top=0;left=0;bottom=0;right=0;collapsible=0;dropTarget=0;fillColor=none;points=[[0,0.5],[1,0.5]];portConstraint=eastwest;" vertex="1" parent="VyBv25yWfUpxDiORW1tx-29">
          <mxGeometry y="88" width="170" height="90" as="geometry" />
        </mxCell>
        <mxCell id="VyBv25yWfUpxDiORW1tx-33" value="&lt;table&gt;&lt;tbody&gt;&lt;tr&gt;&lt;td&gt;&lt;br&gt;&lt;/td&gt;&lt;/tr&gt;&lt;tr&gt;&lt;td&gt;&lt;br&gt;&lt;/td&gt;&lt;/tr&gt;&lt;tr&gt;&lt;td&gt;&lt;br&gt;&lt;/td&gt;&lt;/tr&gt;&lt;tr&gt;&lt;td&gt;&lt;br&gt;&lt;/td&gt;&lt;/tr&gt;&lt;tr&gt;&lt;td&gt;&lt;br&gt;&lt;/td&gt;&lt;/tr&gt;&lt;/tbody&gt;&lt;/table&gt;" style="shape=partialRectangle;html=1;whiteSpace=wrap;connectable=0;strokeColor=inherit;overflow=hidden;fillColor=none;top=0;left=0;bottom=0;right=0;pointerEvents=1;container=1;" vertex="1" parent="VyBv25yWfUpxDiORW1tx-32">
          <mxGeometry width="170" height="90" as="geometry">
            <mxRectangle width="170" height="90" as="alternateBounds" />
          </mxGeometry>
        </mxCell>
        <mxCell id="VyBv25yWfUpxDiORW1tx-66" value="" style="shape=table;startSize=0;container=1;collapsible=0;childLayout=tableLayout;fillColor=#ffe6cc;strokeColor=#d79b00;" vertex="1" parent="VyBv25yWfUpxDiORW1tx-33">
          <mxGeometry width="170" height="89" as="geometry" />
        </mxCell>
        <mxCell id="VyBv25yWfUpxDiORW1tx-67" value="" style="shape=tableRow;horizontal=0;startSize=0;swimlaneHead=0;swimlaneBody=0;strokeColor=inherit;top=0;left=0;bottom=0;right=0;collapsible=0;dropTarget=0;fillColor=none;points=[[0,0.5],[1,0.5]];portConstraint=eastwest;" vertex="1" parent="VyBv25yWfUpxDiORW1tx-66">
          <mxGeometry width="170" height="22" as="geometry" />
        </mxCell>
        <mxCell id="VyBv25yWfUpxDiORW1tx-68" value="" style="shape=partialRectangle;html=1;whiteSpace=wrap;connectable=0;strokeColor=inherit;overflow=hidden;fillColor=none;top=0;left=0;bottom=0;right=0;pointerEvents=1;" vertex="1" parent="VyBv25yWfUpxDiORW1tx-67">
          <mxGeometry width="170" height="22" as="geometry">
            <mxRectangle width="170" height="22" as="alternateBounds" />
          </mxGeometry>
        </mxCell>
        <mxCell id="VyBv25yWfUpxDiORW1tx-69" value="" style="shape=tableRow;horizontal=0;startSize=0;swimlaneHead=0;swimlaneBody=0;strokeColor=inherit;top=0;left=0;bottom=0;right=0;collapsible=0;dropTarget=0;fillColor=none;points=[[0,0.5],[1,0.5]];portConstraint=eastwest;" vertex="1" parent="VyBv25yWfUpxDiORW1tx-66">
          <mxGeometry y="22" width="170" height="25" as="geometry" />
        </mxCell>
        <mxCell id="VyBv25yWfUpxDiORW1tx-70" value="" style="shape=partialRectangle;html=1;whiteSpace=wrap;connectable=0;strokeColor=inherit;overflow=hidden;fillColor=none;top=0;left=0;bottom=0;right=0;pointerEvents=1;" vertex="1" parent="VyBv25yWfUpxDiORW1tx-69">
          <mxGeometry width="170" height="25" as="geometry">
            <mxRectangle width="170" height="25" as="alternateBounds" />
          </mxGeometry>
        </mxCell>
        <mxCell id="VyBv25yWfUpxDiORW1tx-71" value="" style="shape=tableRow;horizontal=0;startSize=0;swimlaneHead=0;swimlaneBody=0;strokeColor=inherit;top=0;left=0;bottom=0;right=0;collapsible=0;dropTarget=0;fillColor=none;points=[[0,0.5],[1,0.5]];portConstraint=eastwest;" vertex="1" parent="VyBv25yWfUpxDiORW1tx-66">
          <mxGeometry y="47" width="170" height="20" as="geometry" />
        </mxCell>
        <mxCell id="VyBv25yWfUpxDiORW1tx-72" value="" style="shape=partialRectangle;html=1;whiteSpace=wrap;connectable=0;strokeColor=inherit;overflow=hidden;fillColor=none;top=0;left=0;bottom=0;right=0;pointerEvents=1;" vertex="1" parent="VyBv25yWfUpxDiORW1tx-71">
          <mxGeometry width="170" height="20" as="geometry">
            <mxRectangle width="170" height="20" as="alternateBounds" />
          </mxGeometry>
        </mxCell>
        <mxCell id="VyBv25yWfUpxDiORW1tx-73" value="" style="shape=tableRow;horizontal=0;startSize=0;swimlaneHead=0;swimlaneBody=0;strokeColor=inherit;top=0;left=0;bottom=0;right=0;collapsible=0;dropTarget=0;fillColor=none;points=[[0,0.5],[1,0.5]];portConstraint=eastwest;" vertex="1" parent="VyBv25yWfUpxDiORW1tx-66">
          <mxGeometry y="67" width="170" height="22" as="geometry" />
        </mxCell>
        <mxCell id="VyBv25yWfUpxDiORW1tx-74" value="" style="shape=partialRectangle;html=1;whiteSpace=wrap;connectable=0;strokeColor=inherit;overflow=hidden;fillColor=none;top=0;left=0;bottom=0;right=0;pointerEvents=1;" vertex="1" parent="VyBv25yWfUpxDiORW1tx-73">
          <mxGeometry width="170" height="22" as="geometry">
            <mxRectangle width="170" height="22" as="alternateBounds" />
          </mxGeometry>
        </mxCell>
        <mxCell id="VyBv25yWfUpxDiORW1tx-83" value="&lt;font color=&quot;#000000&quot;&gt;Page Array&lt;/font&gt;" style="text;strokeColor=none;align=center;fillColor=none;html=1;verticalAlign=middle;whiteSpace=wrap;rounded=0;fontSize=24;" vertex="1" parent="VyBv25yWfUpxDiORW1tx-33">
          <mxGeometry y="30" width="170" height="30" as="geometry" />
        </mxCell>
        <mxCell id="VyBv25yWfUpxDiORW1tx-34" value="" style="shape=tableRow;horizontal=0;startSize=0;swimlaneHead=0;swimlaneBody=0;strokeColor=inherit;top=0;left=0;bottom=0;right=0;collapsible=0;dropTarget=0;fillColor=none;points=[[0,0.5],[1,0.5]];portConstraint=eastwest;" vertex="1" parent="VyBv25yWfUpxDiORW1tx-29">
          <mxGeometry y="178" width="170" height="86" as="geometry" />
        </mxCell>
        <mxCell id="VyBv25yWfUpxDiORW1tx-35" value="&lt;span style=&quot;font-size: 24px;&quot;&gt;pipe_buffer&lt;/span&gt;" style="shape=partialRectangle;html=1;whiteSpace=wrap;connectable=0;strokeColor=inherit;overflow=hidden;fillColor=none;top=0;left=0;bottom=0;right=0;pointerEvents=1;" vertex="1" parent="VyBv25yWfUpxDiORW1tx-34">
          <mxGeometry width="170" height="86" as="geometry">
            <mxRectangle width="170" height="86" as="alternateBounds" />
          </mxGeometry>
        </mxCell>
        <mxCell id="VyBv25yWfUpxDiORW1tx-42" value="" style="shape=tableRow;horizontal=0;startSize=0;swimlaneHead=0;swimlaneBody=0;strokeColor=inherit;top=0;left=0;bottom=0;right=0;collapsible=0;dropTarget=0;fillColor=none;points=[[0,0.5],[1,0.5]];portConstraint=eastwest;" vertex="1" parent="VyBv25yWfUpxDiORW1tx-29">
          <mxGeometry y="264" width="170" height="77" as="geometry" />
        </mxCell>
        <mxCell id="VyBv25yWfUpxDiORW1tx-43" value="&lt;font style=&quot;font-size: 24px;&quot;&gt;.....&lt;/font&gt;" style="shape=partialRectangle;html=1;whiteSpace=wrap;connectable=0;strokeColor=inherit;overflow=hidden;fillColor=none;top=0;left=0;bottom=0;right=0;pointerEvents=1;container=1;" vertex="1" parent="VyBv25yWfUpxDiORW1tx-42">
          <mxGeometry width="170" height="77" as="geometry">
            <mxRectangle width="170" height="77" as="alternateBounds" />
          </mxGeometry>
        </mxCell>
        <mxCell id="VyBv25yWfUpxDiORW1tx-46" value="&lt;font style=&quot;font-size: 24px;&quot;&gt;kmalloc 1k&lt;/font&gt;" style="text;strokeColor=none;align=center;fillColor=none;html=1;verticalAlign=middle;whiteSpace=wrap;rounded=0;" vertex="1" parent="1">
          <mxGeometry x="390" y="179" width="160" height="30" as="geometry" />
        </mxCell>
        <mxCell id="VyBv25yWfUpxDiORW1tx-47" value="" style="shape=table;startSize=0;container=1;collapsible=0;childLayout=tableLayout;" vertex="1" parent="1">
          <mxGeometry x="170" y="257" width="140" height="200" as="geometry" />
        </mxCell>
        <mxCell id="VyBv25yWfUpxDiORW1tx-48" value="" style="shape=tableRow;horizontal=0;startSize=0;swimlaneHead=0;swimlaneBody=0;strokeColor=inherit;top=0;left=0;bottom=0;right=0;collapsible=0;dropTarget=0;fillColor=none;points=[[0,0.5],[1,0.5]];portConstraint=eastwest;" vertex="1" parent="VyBv25yWfUpxDiORW1tx-47">
          <mxGeometry width="140" height="100" as="geometry" />
        </mxCell>
        <mxCell id="VyBv25yWfUpxDiORW1tx-49" value="&lt;font style=&quot;font-size: 24px;&quot;&gt;pagecount&lt;/font&gt;" style="shape=partialRectangle;html=1;whiteSpace=wrap;connectable=0;strokeColor=inherit;overflow=hidden;fillColor=none;top=0;left=0;bottom=0;right=0;pointerEvents=1;" vertex="1" parent="VyBv25yWfUpxDiORW1tx-48">
          <mxGeometry width="140" height="100" as="geometry">
            <mxRectangle width="140" height="100" as="alternateBounds" />
          </mxGeometry>
        </mxCell>
        <mxCell id="VyBv25yWfUpxDiORW1tx-50" value="" style="shape=tableRow;horizontal=0;startSize=0;swimlaneHead=0;swimlaneBody=0;strokeColor=inherit;top=0;left=0;bottom=0;right=0;collapsible=0;dropTarget=0;fillColor=none;points=[[0,0.5],[1,0.5]];portConstraint=eastwest;" vertex="1" parent="VyBv25yWfUpxDiORW1tx-47">
          <mxGeometry y="100" width="140" height="100" as="geometry" />
        </mxCell>
        <mxCell id="VyBv25yWfUpxDiORW1tx-51" value="&lt;font style=&quot;font-size: 24px;&quot;&gt;pages **&lt;/font&gt;" style="shape=partialRectangle;html=1;whiteSpace=wrap;connectable=0;strokeColor=inherit;overflow=hidden;fillColor=none;top=0;left=0;bottom=0;right=0;pointerEvents=1;" vertex="1" parent="VyBv25yWfUpxDiORW1tx-50">
          <mxGeometry width="140" height="100" as="geometry">
            <mxRectangle width="140" height="100" as="alternateBounds" />
          </mxGeometry>
        </mxCell>
        <mxCell id="VyBv25yWfUpxDiORW1tx-53" value="&lt;font style=&quot;font-size: 24px;&quot;&gt;SBUF&lt;/font&gt;" style="text;strokeColor=none;align=center;fillColor=none;html=1;verticalAlign=middle;whiteSpace=wrap;rounded=0;" vertex="1" parent="1">
          <mxGeometry x="210" y="227" width="60" height="30" as="geometry" />
        </mxCell>
        <mxCell id="VyBv25yWfUpxDiORW1tx-54" style="edgeStyle=orthogonalEdgeStyle;rounded=0;orthogonalLoop=1;jettySize=auto;html=1;entryX=-0.01;entryY=0.567;entryDx=0;entryDy=0;entryPerimeter=0;" edge="1" parent="1" source="VyBv25yWfUpxDiORW1tx-50" target="VyBv25yWfUpxDiORW1tx-32">
          <mxGeometry relative="1" as="geometry" />
        </mxCell>
        <mxCell id="VyBv25yWfUpxDiORW1tx-84" value="Out Of Buffer READ!" style="whiteSpace=wrap;html=1;fillColor=#a20025;strokeColor=#6F0000;fontColor=#ffffff;" vertex="1" parent="1">
          <mxGeometry x="390" y="388" width="170" height="19" as="geometry" />
        </mxCell>
      </root>
    </mxGraphModel>
  </diagram>
</mxfile>
